<mxfile host="app.diagrams.net" agent="Mozilla/5.0 (Windows NT 10.0; Win64; x64) AppleWebKit/537.36 (KHTML, like Gecko) Chrome/132.0.0.0 Safari/537.36" version="26.0.11">
  <diagram name="Страница — 1" id="ubRyHzYYIIqDPb4GmH29">
    <mxGraphModel dx="489" dy="665" grid="1" gridSize="10" guides="1" tooltips="1" connect="1" arrows="1" fold="1" page="1" pageScale="1" pageWidth="827" pageHeight="1169" math="0" shadow="1">
      <root>
        <mxCell id="0" />
        <mxCell id="1" parent="0" />
        <mxCell id="DfQp2JPkYbYwGiMx5xnM-5" value="" style="edgeStyle=none;rounded=1;orthogonalLoop=1;jettySize=auto;html=1;curved=0;endArrow=none;startFill=0;" edge="1" parent="1" source="DfQp2JPkYbYwGiMx5xnM-1" target="DfQp2JPkYbYwGiMx5xnM-3">
          <mxGeometry relative="1" as="geometry">
            <Array as="points">
              <mxPoint x="320" y="110" />
            </Array>
          </mxGeometry>
        </mxCell>
        <mxCell id="DfQp2JPkYbYwGiMx5xnM-1" value="&lt;font style=&quot;font-size: 28px;&quot;&gt;Book&lt;/font&gt;" style="rounded=0;whiteSpace=wrap;html=1;strokeColor=default;" vertex="1" parent="1">
          <mxGeometry x="120" y="80" width="120" height="60" as="geometry" />
        </mxCell>
        <mxCell id="DfQp2JPkYbYwGiMx5xnM-3" value="- title : str&lt;div&gt;- author : str&lt;/div&gt;&lt;div&gt;- ISBN ; str&lt;/div&gt;&lt;div&gt;- price : float&lt;/div&gt;" style="rounded=0;whiteSpace=wrap;html=1;" vertex="1" parent="1">
          <mxGeometry x="270" y="140" width="120" height="60" as="geometry" />
        </mxCell>
        <mxCell id="DfQp2JPkYbYwGiMx5xnM-4" value="+ display_info()&lt;div&gt;&lt;div&gt;+ apply_discount()&lt;/div&gt;&lt;/div&gt;" style="rounded=0;whiteSpace=wrap;html=1;" vertex="1" parent="1">
          <mxGeometry x="390" y="220" width="120" height="60" as="geometry" />
        </mxCell>
        <mxCell id="DfQp2JPkYbYwGiMx5xnM-6" style="rounded=0;orthogonalLoop=1;jettySize=auto;html=1;exitX=1;exitY=0.5;exitDx=0;exitDy=0;entryX=0.596;entryY=-0.06;entryDx=0;entryDy=0;entryPerimeter=0;endArrow=none;startFill=0;" edge="1" parent="1" source="DfQp2JPkYbYwGiMx5xnM-3" target="DfQp2JPkYbYwGiMx5xnM-4">
          <mxGeometry relative="1" as="geometry" />
        </mxCell>
      </root>
    </mxGraphModel>
  </diagram>
</mxfile>
